#!OML:ASF F:\VICON\USERDATA\INSTALL\rory3\rory3.ASF
:FULLY-SPECIFIED
:DEGREES
724
root -0.372447 15.0457 -1.18794 27.2199 -39.945 -3.83291
lowerback 26.2305 1.25697 0.866009
upperback 7.71285 1.76069 2.83543
thorax -6.03619 0.707339 2.08717
lowerneck -20.9042 4.1038 -8.42294
upperneck 23.7925 9.76658 -4.8322
head 11.117 2.9601 1.109
rclavicle 1.07344e-014 1.74931e-014
rhumerus -26.1796 30.5698 -81.2017
rradius 77.5947
rwrist 30.7516
rhand -40.9348 7.84957
rfingers 7.12502
rthumb -13.8688 -21.668
lclavicle 1.07344e-014 1.74931e-014
lhumerus -24.8512 -31.1361 89.3637
lradius 71.3679
lwrist -21.9321
lhand -43.7301 9.03011
lfingers 7.12502
lthumb -16.5613 38.3434
rfemur -65.7962 -13.0088 18.5577
rtibia 75.6021
rfoot -27.9591 -8.89657
rtoes -18.4512
lfemur -77.3832 10.1309 -21.7345
ltibia 69.9051
lfoot -17.6105 -3.90788
ltoes -15.7495
725
root -0.403697 15.1648 -1.11641 27.0337 -39.4351 -3.62317
lowerback 25.8714 1.30278 0.808245
upperback 7.49874 1.81572 2.77454
thorax -6.09836 0.742411 2.03791
lowerneck -20.7358 4.09814 -8.31413
upperneck 23.7449 9.74625 -5.00206
head 11.0846 2.94674 1.02335
rclavicle 1.51076e-014 1.19271e-015
rhumerus -26.2002 30.5675 -81.5068
rradius 75.9356
rwrist 30.3407
rhand -40.4217 7.94711
rfingers 7.12502
rthumb -13.3743 -21.6036
lclavicle 1.51076e-014 1.19271e-015
lhumerus -24.3396 -31.5704 89.6603
lradius 69.6414
lwrist -22.1464
lhand -43.2877 9.24517
lfingers 7.12502
lthumb -16.1354 38.5935
rfemur -64.5225 -13.2309 18.346
rtibia 74.3084
rfoot -27.8975 -9.19076
rtoes -18.4297
lfemur -76.3289 9.93434 -21.9502
ltibia 68.8388
lfoot -16.7819 -3.24488
ltoes -12.076
726
root -0.444358 15.2876 -1.04128 26.8894 -38.9003 -3.78095
lowerback 25.5123 1.37619 0.892702
upperback 7.37066 1.93818 2.78125
thorax -6.06377 0.80629 1.96193
lowerneck -20.5142 4.14649 -8.14014
upperneck 23.643 9.78941 -5.24991
head 11.0287 2.96325 0.907109
rclavicle -2.90226e-014 5.48646e-014
rhumerus -26.2034 30.58 -81.7872
rradius 74.2101
rwrist 30.0438
rhand -40.2505 8.1568
rfingers 7.12502
rthumb -13.2092 -21.4047
lclavicle -2.90226e-014 5.48646e-014
lhumerus -23.8974 -32.2656 89.8574
lradius 68.0402
lwrist -22.4102
lhand -43.1543 10.1867
lfingers 7.12502
lthumb -16.007 39.5454
rfemur -62.9214 -13.2367 18.3331
rtibia 72.9244
rfoot -27.9287 -9.38527
rtoes -18.1516
lfemur -75.0707 9.95755 -21.9202
ltibia 67.7782
lfoot -16.3132 -2.55039
ltoes -11.0287
727
root -0.486021 15.3995 -0.966203 26.5926 -38.3207 -3.91941
lowerback 25.3099 1.3998 0.953763
upperback 7.28306 1.99125 2.79658
thorax -6.06017 0.835438 1.92908
lowerneck -20.3839 4.17006 -8.05385
upperneck 23.539 9.82342 -5.4447
head 10.9826 2.97235 0.82468
rclavicle -3.97569e-015 -1.78906e-014
rhumerus -26.05 30.809 -81.9467
rradius 72.3803
rwrist 29.908
rhand -40.242 8.46571
rfingers 7.12502
rthumb -13.2011 -21.0963
lclavicle -3.97569e-015 -1.78906e-014
lhumerus -23.4974 -33.0009 90.0674
lradius 66.5116
lwrist -22.2924
lhand -43.2944 10.7477
lfingers 7.12502
lthumb -16.1418 40.0955
rfemur -61.2209 -13.3346 18.3647
rtibia 71.5683
rfoot -27.7815 -9.72359
rtoes -18.5607
lfemur -73.7079 9.96905 -21.8608
ltibia 66.6885
lfoot -15.8934 -1.93519
ltoes -11.8159
728
root -0.521077 15.5062 -0.883825 26.3008 -37.7359 -4.07642
lowerback 25.0987 1.33133 1.07962
upperback 7.20714 1.94464 2.8597
thorax -6.03541 0.815997 1.9413
lowerneck -20.5247 4.21536 -8.1733
upperneck 23.67 9.97349 -5.49897
head 11.0571 3.00867 0.851649
rclavicle -6.44062e-014 5.1684e-015
rhumerus -25.8024 31.4331 -81.9926
rradius 70.6467
rwrist 29.5469
rhand -40.1724 8.81739
rfingers 7.12502
rthumb -13.1339 -20.749
lclavicle -6.44062e-014 5.1684e-015
lhumerus -23.0707 -33.2255 90.3532
lradius 65.0181
lwrist -22.487
lhand -43.2139 10.6063
lfingers 7.12502
lthumb -16.0643 39.9604
rfemur -59.5183 -13.4671 18.3763
rtibia 70.2093
rfoot -27.6252 -9.91565
rtoes -18.6119
lfemur -72.3635 9.98954 -21.7994
ltibia 65.578
lfoot -15.3234 -2.03287
ltoes -11.0316
729
root -0.549331 15.6077 -0.800658 25.9774 -37.2241 -3.93735
lowerback 24.7792 1.32446 1.06085
upperback 7.04912 1.93745 2.80557
thorax -6.04867 0.819021 1.89684
lowerneck -20.5693 4.28234 -8.18263
upperneck 23.8241 10.0804 -5.44665
head 11.1181 3.05099 0.890944
rclavicle -6.99722e-014 4.29375e-014
rhumerus -25.8017 31.9011 -82.1406
rradius 69.0663
rwrist 28.898
rhand -39.9496 9.22587
rfingers 7.12502
rthumb -12.9192 -20.3542
lclavicle -6.99722e-014 4.29375e-014
lhumerus -22.7056 -33.7302 90.6513
lradius 63.4816
lwrist -23.089
lhand -42.6868 10.9436
lfingers 7.12502
lthumb -15.5567 40.3379
rfemur -58.0667 -13.6595 18.1483
rtibia 68.9197
rfoot -27.5106 -10.1888
rtoes -18.4493
lfemur -71.1863 9.89441 -22.0146
ltibia 64.4166
lfoot -14.6304 -2.70518
ltoes -9.62189
730
root -0.578527 15.7117 -0.702607 25.2986 -36.9161 -3.53482
lowerback 24.6433 1.38969 0.943502
upperback 6.9056 1.98556 2.55439
thorax -6.13504 0.848582 1.67581
lowerneck -20.5223 4.29458 -8.00855
upperneck 23.9081 10.0442 -5.4316
head 11.147 3.04852 0.863912
rclavicle -1.0138e-013 -6.36111e-015
rhumerus -25.8664 32.131 -82.5255
rradius 67.4048
rwrist 28.1408
rhand -39.7203 9.8854
rfingers 7.12502
rthumb -12.6982 -19.7085
lclavicle -1.0138e-013 -6.36111e-015
lhumerus -22.463 -34.586 90.8404
lradius 62.0625
lwrist -23.5907
lhand -41.877 11.2902
lfingers 7.12502
lthumb -14.7767 40.7434
rfemur -56.3355 -13.7687 17.4885
rtibia 67.6148
rfoot -27.4618 -10.338
rtoes -17.8109
lfemur -69.6911 9.78456 -22.4526
ltibia 63.2754
lfoot -14.0175 -3.84821
ltoes -7.41726
731
root -0.61268 15.8116 -0.621451 24.8109 -36.2958 -3.22083
lowerback 24.4902 1.44919 0.686336
upperback 6.71281 2.0171 2.56384
thorax -6.2806 0.871217 1.82445
lowerneck -20.5891 4.2428 -8.07422
upperneck 24.0196 10.0224 -5.44847
head 11.2017 3.02105 0.86843
rclavicle -3.22031e-014 -1.98785e-015
rhumerus -25.7594 32.6123 -82.6024
rradius 65.7381
rwrist 27.2106
rhand -39.0093 9.56808
rfingers 7.12502
rthumb -12.0126 -20.0672
lclavicle -3.22031e-014 -1.98785e-015
lhumerus -22.1651 -35.4853 91.1372
lradius 60.7435
lwrist -23.5566
lhand -40.8854 11.027
lfingers 7.12502
lthumb -13.8212 40.5478
rfemur -54.7779 -13.895 17.0705
rtibia 66.3571
rfoot -27.554 -10.6837
rtoes -16.8984
lfemur -68.4391 9.51421 -22.692
ltibia 62.1525
lfoot -13.184 -4.9883
ltoes -4.45315
732
root -0.649701 15.9045 -0.53449 24.5801 -35.5271 -3.52199
lowerback 24.2711 1.47025 0.972075
upperback 6.63413 2.1233 2.64627
thorax -6.2526 0.923418 1.72188
lowerneck -20.8984 4.20087 -7.95272
upperneck 24.2578 10.0131 -5.5115
head 11.363 2.99404 0.837483
rclavicle 5.28767e-014 -4.73108e-014
rhumerus -25.5995 32.9541 -82.7337
rradius 64.1091
rwrist 26.5606
rhand -37.968 8.09799
rfingers 7.12502
rthumb -11.0084 -21.5934
lclavicle 5.28767e-014 -4.73108e-014
lhumerus -21.7479 -36.568 91.2884
lradius 59.4798
lwrist -23.7171
lhand -41.314 11.3018
lfingers 7.12502
lthumb -14.2343 40.794
rfemur -53.0486 -13.9903 17.1916
rtibia 65.1122
rfoot -27.7096 -10.8138
rtoes -15.6313
lfemur -67.1498 9.33094 -22.3562
ltibia 61.1631
lfoot -12.5621 -5.20655
ltoes -2.87221
733
root -0.681863 15.9917 -0.441902 24.1598 -34.8036 -3.67528
lowerback 24.124 1.42931 1.19521
upperback 6.56753 2.13214 2.69084
thorax -6.24516 0.929031 1.64151
lowerneck -21.0649 4.22804 -7.82953
upperneck 24.3472 10.0998 -5.70059
head 11.4492 3.00807 0.769374
rclavicle -2.18663e-014 4.41302e-014
rhumerus -25.4751 33.3265 -82.872
rradius 62.4421
rwrist 26.2375
rhand -37.3839 8.01347
rfingers 7.12502
rthumb -10.445 -21.7071
lclavicle -2.18663e-014 4.41302e-014
lhumerus -21.4223 -37.2255 91.5503
lradius 58.2824
lwrist -24.3213
lhand -40.6457 11.3249
lfingers 7.12502
lthumb -13.5902 40.8613
rfemur -51.2756 -14.2664 17.1937
rtibia 63.9568
rfoot -27.7927 -10.7825
rtoes -14.5422
lfemur -65.7648 9.05334 -22.1062
ltibia 60.2398
lfoot -12.3499 -4.94844
ltoes -2.81624
734
root -0.711688 16.0695 -0.349109 23.6667 -34.2162 -3.6436
lowerback 23.9386 1.43969 1.20668
upperback 6.48101 2.15421 2.69139
thorax -6.24656 0.943182 1.63084
lowerneck -21.1943 4.2679 -7.80551
upperneck 24.4844 10.191 -5.72692
head 11.5297 3.03444 0.775529
rclavicle 4.17448e-014 -6.63941e-014
rhumerus -25.3231 33.5203 -82.9814
rradius 60.6204
rwrist 26.3668
rhand -37.5337 9.22218
rfingers 7.12502
rthumb -10.5894 -20.491
lclavicle 4.17448e-014 -6.63941e-014
lhumerus -21.1834 -37.7869 91.8892
lradius 57.2195
lwrist -24.9932
lhand -39.6589 10.9936
lfingers 7.12502
lthumb -12.6389 40.5912
rfemur -49.6638 -14.4805 16.9887
rtibia 62.8967
rfoot -27.5841 -11.0096
rtoes -14.3713
lfemur -64.4455 8.83026 -22.0826
ltibia 59.392
lfoot -12.2327 -5.49389
ltoes -2.39639
735
root -0.740462 16.1467 -0.256485 23.2437 -33.7032 -3.66789
lowerback 23.6776 1.49754 1.19791
upperback 6.37207 2.23157 2.68654
thorax -6.23573 0.984502 1.61115
lowerneck -21.1589 4.26854 -7.83875
upperneck 24.547 10.1935 -5.67143
head 11.5412 3.03723 0.801064
rclavicle -1.39149e-014 3.02153e-014
rhumerus -25.1433 33.7472 -83.0287
rradius 59.0475
rwrist 25.9467
rhand -36.9311 10.6437
rfingers 7.12502
rthumb -10.0082 -19.0984
lclavicle -1.39149e-014 3.02153e-014
lhumerus -21.1265 -38.4507 92.2936
lradius 56.246
lwrist -25.9102
lhand -38.72 11.1388
lfingers 7.12502
lthumb -11.7337 40.7902
rfemur -48.142 -14.5686 16.7717
rtibia 61.9318
rfoot -27.4572 -11.0614
rtoes -13.4047
lfemur -63.1636 8.671 -22.0321
ltibia 58.5669
lfoot -12.0697 -6.43179
ltoes -1.22397
736
root -0.767024 16.2235 -0.161142 22.7781 -33.1132 -3.75256
lowerback 23.4506 1.4883 1.35281
upperback 6.3053 2.25458 2.6352
thorax -6.18573 0.997892 1.46301
lowerneck -21.292 4.28896 -7.70966
upperneck 24.6657 10.2127 -5.66781
head 11.6178 3.04656 0.790562
rclavicle -3.1408e-014 -3.29983e-014
rhumerus -25.0378 34.0188 -83.2745
rradius 57.709
rwrist 24.9971
rhand -35.4747 10.4369
rfingers 7.12502
rthumb -8.60291 -19.3679
lclavicle -3.1408e-014 -3.29983e-014
lhumerus -21.0922 -39.2153 92.5488
lradius 55.2153
lwrist -26.9552
lhand -39.3351 11.3454
lfingers 7.12502
lthumb -12.3268 40.962
rfemur -46.5528 -14.6926 16.6235
rtibia 61.004
rfoot -27.2604 -11.2831
rtoes -12.9004
lfemur -61.775 8.43134 -21.8793
ltibia 57.7341
lfoot -11.9551 -6.73611
ltoes -0.583358
737
root -0.791144 16.2915 -0.0762593 22.4682 -32.4157 -3.78539
lowerback 23.3135 1.52623 1.23356
upperback 6.03654 2.30833 2.81641
thorax -6.42406 1.02932 1.71275
lowerneck -21.2612 4.28491 -7.95171
upperneck 24.7795 10.2845 -5.61206
head 11.6411 3.05661 0.860259
rclavicle -7.07673e-014 2.26615e-014
rhumerus -25.311 34.2634 -83.3813
rradius 56.5566
rwrist 24.2521
rhand -33.4137 9.37283
rfingers 7.12502
rthumb -6.61356 -20.5039
lclavicle -7.07673e-014 2.26615e-014
lhumerus -21.2993 -39.4257 93.264
lradius 54.4028
lwrist -27.7354
lhand -38.9062 10.2399
lfingers 7.12502
lthumb -11.9132 39.881
rfemur -45.2369 -14.9025 16.5228
rtibia 60.1566
rfoot -26.9965 -11.4433
rtoes -12.1538
lfemur -60.6515 8.01705 -21.7038
ltibia 56.9056
lfoot -11.7486 -6.76613
ltoes -0.0844287
738
root -0.815331 16.373 0.0298218 21.8417 -31.9911 -3.88368
lowerback 23.2317 1.61836 1.29221
upperback 5.99039 2.44206 2.79234
thorax -6.43249 1.09482 1.61611
lowerneck -21.0066 4.27577 -8.17328
upperneck 24.5947 10.1823 -5.21512
head 11.4789 3.06703 1.01278
rclavicle 9.54166e-015 2.14687e-014
rhumerus -25.4495 34.0997 -83.6018
rradius 55.5997
rwrist 23.4169
rhand -31.6679 9.07998
rfingers 7.12502
rthumb -4.92811 -20.8427
lclavicle 9.54166e-015 2.14687e-014
lhumerus -21.3219 -39.737 93.5566
lradius 53.8462
lwrist -28.35
lhand -37.7479 9.46746
lfingers 7.12502
lthumb -10.7961 39.17
rfemur -43.4908 -14.9012 16.2557
rtibia 59.2916
rfoot -26.5072 -11.7877
rtoes -12.1164
lfemur -58.9885 7.70334 -21.493
ltibia 56.0336
lfoot -11.7984 -6.87765
ltoes 0.952701
